<svg xmlns="http://www.w3.org/2000/svg" xmlns:xlink="http://www.w3.org/1999/xlink" width="250" zoomAndPan="magnify" viewBox="0 0 187.5 187.499992" height="250" preserveAspectRatio="xMidYMid meet" version="1.0"><defs><clipPath id="acd3fd5657"><path d="M 136.011719 92 L 186.945312 92 L 186.945312 125.992188 L 136.011719 125.992188 Z M 136.011719 92 " clip-rule="nonzero"/></clipPath><clipPath id="74d6455b98"><path d="M 20.625 65.199219 L 135.503906 65.199219 L 135.503906 179.242188 L 20.625 179.242188 Z M 20.625 65.199219 " clip-rule="nonzero"/></clipPath></defs><path fill="#424242" d="M 29.046875 78.207031 C 30.503906 76.75 30.503906 74.382812 29.046875 72.925781 C 27.589844 71.46875 25.226562 71.46875 23.769531 72.925781 L 1.476562 95.246094 C 0.0195312 96.703125 0.0195312 99.070312 1.476562 100.527344 C 2.933594 101.984375 5.292969 101.984375 6.75 100.527344 L 29.046875 78.207031 " fill-opacity="1" fill-rule="nonzero"/><path fill="#424242" d="M 35.734375 84.902344 C 37.191406 83.445312 37.191406 81.082031 35.734375 79.621094 C 34.277344 78.164062 31.917969 78.164062 30.460938 79.621094 L 8.164062 101.941406 C 6.707031 103.402344 6.707031 105.765625 8.164062 107.222656 C 9.621094 108.679688 11.980469 108.679688 13.4375 107.222656 L 35.734375 84.902344 " fill-opacity="1" fill-rule="nonzero"/><path fill="#424242" d="M 42.425781 91.601562 C 43.882812 90.140625 43.882812 87.777344 42.425781 86.316406 C 40.96875 84.859375 38.605469 84.859375 37.148438 86.316406 L 14.851562 108.640625 C 13.394531 110.097656 13.394531 112.460938 14.851562 113.917969 C 16.308594 115.378906 18.667969 115.378906 20.125 113.917969 L 42.425781 91.601562 " fill-opacity="1" fill-rule="nonzero"/><path fill="#424242" d="M 49.113281 98.292969 C 50.570312 96.835938 50.570312 94.472656 49.113281 93.015625 C 47.65625 91.554688 45.292969 91.554688 43.835938 93.015625 L 21.539062 115.335938 C 20.082031 116.792969 20.082031 119.15625 21.539062 120.617188 C 22.996094 122.074219 25.359375 122.074219 26.816406 120.617188 L 49.113281 98.292969 " fill-opacity="1" fill-rule="nonzero"/><path fill="#424242" d="M 55.800781 104.992188 C 57.257812 103.535156 57.257812 101.167969 55.800781 99.710938 C 54.34375 98.25 51.980469 98.25 50.523438 99.710938 L 28.230469 122.03125 C 26.773438 123.488281 26.773438 125.855469 28.230469 127.3125 C 29.6875 128.769531 32.050781 128.769531 33.503906 127.3125 L 55.800781 104.992188 " fill-opacity="1" fill-rule="nonzero"/><path fill="#424242" d="M 62.492188 111.6875 C 63.945312 110.226562 63.945312 107.867188 62.492188 106.40625 C 61.035156 104.949219 58.671875 104.949219 57.214844 106.40625 L 34.917969 128.726562 C 33.460938 130.183594 33.460938 132.550781 34.917969 134.007812 C 36.375 135.46875 38.738281 135.46875 40.195312 134.007812 L 62.492188 111.6875 " fill-opacity="1" fill-rule="nonzero"/><path fill="#424242" d="M 69.179688 118.382812 C 70.636719 116.925781 70.636719 114.558594 69.179688 113.101562 C 67.722656 111.644531 65.359375 111.644531 63.90625 113.101562 L 41.609375 135.421875 C 40.152344 136.882812 40.152344 139.246094 41.609375 140.703125 C 43.066406 142.164062 45.425781 142.164062 46.882812 140.703125 L 69.179688 118.382812 " fill-opacity="1" fill-rule="nonzero"/><path fill="#424242" d="M 75.867188 125.078125 C 77.324219 123.621094 77.324219 121.257812 75.867188 119.800781 C 74.410156 118.339844 72.050781 118.339844 70.59375 119.800781 L 48.296875 142.117188 C 46.839844 143.578125 46.839844 145.941406 48.296875 147.402344 C 49.753906 148.859375 52.113281 148.859375 53.570312 147.402344 L 75.867188 125.078125 " fill-opacity="1" fill-rule="nonzero"/><path fill="#424242" d="M 82.558594 131.777344 C 84.011719 130.316406 84.011719 127.953125 82.558594 126.492188 C 81.101562 125.035156 78.738281 125.035156 77.28125 126.492188 L 54.984375 148.816406 C 53.527344 150.273438 53.527344 152.640625 54.984375 154.097656 C 56.441406 155.554688 58.800781 155.554688 60.257812 154.097656 L 82.558594 131.777344 " fill-opacity="1" fill-rule="nonzero"/><g clip-path="url(#acd3fd5657)"><path fill="#424242" d="M 138.148438 92.015625 L 157.832031 100.019531 C 160.300781 96.621094 163.871094 94.460938 167.714844 93.699219 C 181.515625 90.972656 192.21875 106.441406 184.175781 118.457031 C 174.519531 132.875 152.1875 123.671875 154.953125 106.886719 L 136.375 99.339844 Z M 175.632812 102.3125 C 173.65625 100.988281 171.320312 100.59375 169.140625 101.023438 C 161.53125 102.527344 159.734375 112.46875 166.011719 116.679688 C 169.957031 119.328125 175.347656 118.265625 177.996094 114.3125 C 180.640625 110.359375 179.578125 104.964844 175.632812 102.3125 " fill-opacity="1" fill-rule="nonzero"/></g><path fill="#424242" d="M 128.507812 102.941406 C 127.535156 101.125 125.277344 100.449219 123.46875 101.421875 C 121.65625 102.398438 120.976562 104.65625 121.953125 106.46875 L 134.894531 130.5625 C 135.867188 132.375 138.125 133.054688 139.9375 132.082031 C 141.746094 131.105469 142.425781 128.84375 141.449219 127.03125 L 128.507812 102.941406 " fill-opacity="1" fill-rule="nonzero"/><path fill="#424242" d="M 138.636719 145.253906 C 138.757812 145.386719 138.867188 145.53125 138.96875 145.675781 C 140.421875 147.421875 142.4375 148.449219 144.554688 148.707031 C 146.671875 148.96875 148.882812 148.453125 150.710938 147.109375 C 150.847656 146.988281 150.988281 146.875 151.136719 146.777344 C 152.875 145.324219 153.90625 143.304688 154.164062 141.183594 C 154.425781 139.0625 153.910156 136.855469 152.566406 135.019531 C 152.441406 134.886719 152.332031 134.742188 152.234375 134.597656 C 150.78125 132.851562 148.765625 131.824219 146.648438 131.5625 C 144.527344 131.304688 142.320312 131.820312 140.492188 133.164062 C 140.355469 133.285156 140.214844 133.398438 140.066406 133.496094 C 138.324219 134.949219 137.296875 136.96875 137.039062 139.089844 C 136.777344 141.210938 137.292969 143.421875 138.636719 145.253906 Z M 143.652344 156.121094 C 139.691406 155.636719 135.902344 153.671875 133.175781 150.339844 C 133.089844 150.253906 133.007812 150.15625 132.929688 150.058594 L 132.941406 150.050781 L 132.9375 150.046875 L 135.445312 148.089844 L 135.871094 147.757812 L 132.9375 150.046875 C 130.199219 146.542969 129.136719 142.265625 129.632812 138.183594 C 130.117188 134.21875 132.078125 130.425781 135.410156 127.695312 C 135.496094 127.609375 135.589844 127.527344 135.6875 127.453125 L 135.699219 127.464844 L 135.699219 127.460938 L 137.65625 129.96875 L 137.988281 130.394531 L 135.699219 127.460938 C 139.203125 124.71875 143.476562 123.652344 147.550781 124.152344 C 151.511719 124.636719 155.300781 126.601562 158.027344 129.933594 C 158.113281 130.019531 158.195312 130.117188 158.269531 130.214844 L 158.261719 130.222656 L 158.261719 130.226562 L 155.546875 132.347656 L 155.332031 132.515625 L 158.261719 130.226562 C 161.003906 133.730469 162.066406 138.011719 161.566406 142.089844 C 161.082031 146.054688 159.121094 149.847656 155.792969 152.578125 C 155.707031 152.664062 155.613281 152.746094 155.511719 152.820312 L 155.503906 152.808594 L 155.5 152.8125 L 153.378906 150.09375 L 153.214844 149.878906 L 155.5 152.8125 C 152 155.554688 147.726562 156.617188 143.652344 156.121094 " fill-opacity="1" fill-rule="nonzero"/><path fill="#212121" d="M 119.53125 162.890625 C 117.667969 161.257812 115.839844 159.632812 114.046875 158.019531 L 118.921875 162.902344 C 119.871094 163.8125 120.308594 165.199219 119.945312 166.558594 L 116.339844 165.597656 L 119.941406 166.558594 C 119.75 167.269531 119.75 168.015625 119.941406 168.726562 C 120.121094 169.398438 120.480469 170.039062 121.019531 170.578125 C 121.828125 171.390625 122.894531 171.796875 123.957031 171.796875 C 125.019531 171.796875 126.082031 171.390625 126.890625 170.578125 C 127.652344 169.820312 127.96875 168.683594 127.933594 167.550781 C 127.894531 166.398438 127.519531 165.328125 126.890625 164.699219 C 126.160156 163.964844 125.554688 163.605469 125.019531 163.496094 C 124.492188 163.382812 123.847656 163.464844 123.113281 163.652344 C 121.910156 164.03125 120.542969 163.796875 119.523438 162.902344 L 119.53125 162.890625 " fill-opacity="1" fill-rule="nonzero"/><g clip-path="url(#74d6455b98)"><path fill="#424242" d="M 34.5 67.230469 C 43.648438 74.367188 55.722656 85.519531 66.886719 96.695312 C 81.308594 111.136719 93.777344 128.089844 108.316406 142.4375 C 112.882812 146.945312 117.832031 151.46875 123.054688 156.082031 C 124.195312 155.9375 125.34375 155.949219 126.535156 156.199219 C 128.472656 156.601562 130.328125 157.578125 132.167969 159.417969 C 134.113281 161.363281 135.273438 164.335938 135.363281 167.347656 C 135.457031 170.378906 134.484375 173.539062 132.167969 175.863281 C 129.898438 178.132812 126.929688 179.265625 123.957031 179.265625 C 120.984375 179.265625 118.011719 178.132812 115.746094 175.863281 C 114.257812 174.371094 113.253906 172.566406 112.742188 170.652344 C 112.414062 169.429688 112.289062 168.160156 112.371094 166.902344 L 23.769531 78.207031 C 23.667969 78.105469 23.574219 77.996094 23.488281 77.890625 C 21.4375 75.523438 20.765625 73.214844 21.011719 71.210938 C 21.191406 69.726562 21.84375 68.46875 22.832031 67.472656 C 23.695312 66.601562 24.789062 65.972656 26.003906 65.609375 C 28.402344 64.890625 31.46875 65.210938 34.007812 66.863281 C 34.039062 66.824219 34.453125 67.1875 34.5 67.230469 " fill-opacity="1" fill-rule="nonzero"/></g><path fill="#424242" d="M 84.59375 10.289062 C 91.691406 20.671875 138.695312 86.332031 139.164062 92.289062 L 137.390625 99.613281 C 133.75 106.183594 126 109.9375 119.082031 105.910156 L 36.785156 57.984375 C 35.988281 58.300781 34.175781 55.035156 35.429688 52.882812 C 36.417969 51.175781 38.550781 50.546875 40.292969 51.40625 L 110.445312 79.769531 L 78.046875 13.839844 C 77.507812 13.847656 77.128906 10.121094 79.734375 8.839844 C 81.496094 7.972656 83.613281 8.625 84.59375 10.289062 Z M 124.628906 87.210938 C 122.417969 85.726562 119.417969 86.316406 117.9375 88.53125 C 116.453125 90.746094 117.046875 93.746094 119.257812 95.230469 C 121.472656 96.714844 124.464844 96.121094 125.949219 93.90625 C 127.433594 91.691406 126.839844 88.695312 124.628906 87.210938 " fill-opacity="1" fill-rule="evenodd"/></svg>