<svg xmlns="http://www.w3.org/2000/svg" xmlns:xlink="http://www.w3.org/1999/xlink" width="250" zoomAndPan="magnify" viewBox="0 0 187.5 187.499992" height="250" preserveAspectRatio="xMidYMid meet" version="1.0"><defs><clipPath id="cbbe7b0bb3"><path d="M 22.535156 18.699219 L 164.65625 18.699219 L 164.65625 168.300781 L 22.535156 168.300781 Z M 22.535156 18.699219 " clip-rule="nonzero"/></clipPath></defs><path fill="#ffffff" d="M 0 0 L 187 0 L 187 187 L 0 187 Z M 0 0 " fill-opacity="1" fill-rule="nonzero"/><path fill="#ffffff" d="M 0 0 L 187 0 L 187 187 L 0 187 Z M 0 0 " fill-opacity="1" fill-rule="nonzero"/><g clip-path="url(#cbbe7b0bb3)"><path fill="#000000" d="M 102.476562 164.425781 L 101.464844 162.308594 L 97.734375 166.628906 C 97.46875 166.054688 97.1875 165.4375 96.792969 164.570312 C 96.398438 165.433594 96.09375 166.109375 95.71875 166.9375 C 95.335938 166.441406 95.042969 166.0625 94.601562 165.496094 C 94.328125 166.429688 94.128906 167.117188 93.785156 168.289062 C 93.324219 166.953125 93.007812 166.042969 92.632812 164.960938 L 91.242188 166.761719 L 89.613281 163.878906 L 88.566406 165.082031 L 87.101562 163.078125 L 86.203125 164.621094 L 84.992188 162.617188 L 83.992188 164.191406 C 82.109375 162.171875 82.105469 162.171875 80.6875 163.769531 L 77.660156 160.121094 L 76.207031 162.800781 L 73.199219 156.996094 L 71.527344 159.890625 C 70.78125 158.363281 70.074219 156.921875 69.222656 155.175781 L 68.125 157.855469 C 67.550781 157.105469 67 156.382812 66.34375 155.53125 L 64.855469 157.183594 L 62.085938 152.546875 L 61.042969 154.554688 L 57.347656 150.003906 C 57.296875 150.488281 57.242188 151.015625 57.117188 152.183594 C 55.121094 149.09375 53.398438 146.4375 51.621094 143.691406 L 51.621094 146.367188 C 49.460938 145.386719 49.375 145.277344 46.878906 140.140625 C 46.6875 140.898438 46.546875 141.453125 46.28125 142.488281 C 45.730469 141.441406 45.292969 140.714844 44.960938 139.945312 C 44.597656 139.097656 44.28125 138.226562 44.019531 137.34375 C 43.757812 136.484375 43.582031 135.601562 43.257812 134.273438 C 42.972656 135.40625 42.800781 136.097656 42.492188 137.332031 L 37.179688 124.582031 L 36.957031 124.550781 C 37.109375 125.746094 37.257812 126.941406 37.410156 128.136719 L 36.84375 128.289062 C 35.578125 123.984375 34.316406 119.683594 33.023438 115.28125 C 32.863281 115.722656 32.714844 116.132812 32.5625 116.546875 L 32.246094 116.566406 C 31.683594 113.269531 31.125 109.972656 30.527344 106.445312 L 29.722656 107.867188 C 29.359375 105.195312 29.050781 102.9375 28.699219 100.359375 C 28.378906 100.945312 28.207031 101.253906 28.035156 101.566406 L 27.714844 101.527344 L 27.714844 90.160156 L 27.328125 90.121094 C 26.941406 91.421875 26.550781 92.722656 26.164062 94.019531 L 25.597656 93.921875 C 25.859375 90.664062 26.121094 87.402344 26.386719 84.144531 L 26.152344 84.003906 C 25.644531 84.847656 25.136719 85.691406 24.34375 87.011719 C 24.496094 83.792969 24.621094 81.09375 24.757812 78.203125 C 24.28125 79.003906 23.890625 79.664062 23.5 80.320312 L 22.996094 80.230469 C 23.261719 77.476562 23.527344 74.71875 23.792969 71.960938 L 22.710938 71.847656 L 24.511719 65.96875 L 23.058594 66.832031 C 23.257812 65.628906 23.535156 64.652344 23.5625 63.664062 C 23.632812 61.1875 23.585938 58.707031 23.585938 56.152344 L 22.667969 56.632812 C 23.046875 53.332031 23.40625 50.179688 23.808594 46.632812 L 22.53125 48.726562 C 22.738281 38.613281 22.941406 28.804688 23.148438 18.714844 C 24.730469 23.441406 26.21875 27.894531 27.859375 32.796875 C 28.398438 31.664062 28.75 30.933594 29.238281 29.90625 C 29.941406 32.660156 30.578125 35.15625 31.277344 37.890625 L 32.222656 36.542969 C 32.433594 37.347656 32.6875 37.960938 32.738281 38.59375 C 32.945312 41.183594 35.410156 43.050781 35.023438 45.832031 C 34.964844 46.238281 35.015625 46.78125 35.246094 47.085938 C 36.304688 48.484375 36.386719 50.085938 36.640625 51.734375 C 36.785156 52.695312 37.902344 53.511719 38.671875 54.507812 L 39.3125 54.027344 C 40.003906 56.347656 40.664062 58.566406 41.371094 60.9375 L 42.578125 58.933594 C 42.722656 60.160156 42.820312 60.96875 42.941406 62.015625 L 44.242188 61.09375 C 45.105469 62.476562 45.96875 63.859375 46.90625 65.363281 C 47.28125 65.164062 47.628906 64.976562 47.976562 64.789062 C 49.371094 66.734375 50.988281 66.679688 52.398438 64.714844 C 52.636719 64.382812 53.265625 64.355469 53.632812 64.082031 C 54.351562 63.550781 55.011719 62.941406 55.792969 62.285156 L 57.105469 63.425781 L 57.898438 62.023438 L 59.285156 62.757812 L 60.917969 60.492188 L 62.265625 61.59375 L 63.101562 60 L 63.394531 60.445312 C 64.394531 59.847656 65.4375 59.296875 66.390625 58.628906 C 67.34375 57.964844 67.828125 57.0625 69.542969 57.332031 C 70.679688 57.511719 72.730469 57.671875 74.09375 56.414062 C 74.5625 55.984375 75.507812 56.117188 76.128906 55.796875 C 77.132812 55.277344 78.050781 54.59375 79.097656 53.921875 C 79.359375 54.640625 79.621094 55.363281 80.035156 56.5 C 80.542969 55.40625 80.882812 54.664062 81.300781 53.757812 L 82.820312 54.75 L 84.519531 52.425781 C 84.757812 53.710938 84.894531 54.460938 85.117188 55.660156 L 87.976562 52.921875 C 88.132812 53.148438 88.371094 53.503906 88.664062 53.9375 L 90.332031 52.515625 L 92.21875 53.5625 L 93.003906 52.183594 L 96.027344 53.433594 L 96.945312 52.050781 C 97.273438 52.730469 97.523438 53.253906 97.847656 53.917969 L 98.496094 52.914062 L 101.578125 55.835938 C 101.71875 54.652344 101.792969 54.003906 101.90625 53.066406 L 103.863281 54.703125 L 105.171875 53.746094 L 106.460938 56.382812 C 106.867188 55.378906 107.152344 54.683594 107.378906 54.121094 L 113.691406 57.339844 L 114.621094 56.578125 L 117.386719 58.277344 C 117.535156 57.863281 117.660156 57.503906 117.882812 56.871094 L 122.074219 60.273438 L 123.613281 58.890625 L 125.058594 61.871094 L 127.308594 59.140625 C 127.675781 60.707031 127.957031 61.90625 128.355469 63.601562 L 129.171875 60.894531 L 131.707031 64.601562 L 133.488281 62.628906 L 135.621094 65.503906 L 136.679688 63.902344 L 138.535156 66.964844 L 140.351562 64.15625 C 140.824219 64.460938 141.3125 64.773438 141.976562 65.203125 C 142.3125 63.519531 142.617188 61.976562 142.933594 60.410156 L 144.703125 61.421875 C 145.113281 59.445312 145.476562 57.671875 145.902344 55.613281 C 146.367188 56.300781 146.691406 56.773438 147.015625 57.25 L 147.441406 57.265625 C 147.636719 55.277344 147.835938 53.285156 148.070312 50.933594 L 149.601562 53.160156 L 150.660156 47.976562 L 151.679688 48.890625 C 151.726562 48.871094 151.929688 48.808594 151.925781 48.777344 C 151.574219 46.085938 153.882812 44.128906 153.910156 41.550781 C 155.691406 42.074219 155.261719 40.53125 155.492188 39.773438 C 155.804688 38.726562 155.882812 37.605469 156.109375 36.214844 L 157.292969 37.839844 C 157.6875 35.257812 158.035156 32.988281 158.402344 30.574219 L 159.5 31.25 C 160.558594 27.347656 161.589844 23.554688 162.734375 19.339844 C 163.382812 28.949219 164.003906 38.164062 164.648438 47.664062 L 162.988281 46.332031 C 163.492188 50.023438 163.984375 53.621094 164.476562 57.21875 L 163.933594 57.386719 L 162.359375 55.546875 C 162.832031 57.546875 163.210938 59.144531 163.609375 60.816406 L 162.398438 60.707031 L 163.429688 66.761719 L 162.011719 66.0625 C 162.410156 67.292969 162.9375 68.34375 163.046875 69.433594 C 163.128906 70.296875 164.625 71.558594 162.734375 72.101562 C 162.9375 74.292969 163.140625 76.46875 163.367188 78.914062 L 161.664062 78.128906 C 161.84375 81.554688 162.015625 84.804688 162.1875 88.054688 L 161.910156 88.152344 L 160.480469 85.722656 L 160.1875 85.863281 L 161.339844 94.097656 L 160.789062 94.21875 L 159.160156 91.257812 L 158.734375 91.3125 L 159.433594 100.421875 L 159.0625 100.558594 L 157.796875 98.515625 L 157.796875 107.144531 L 157.394531 107.234375 L 156.300781 105.5625 L 155.855469 105.605469 L 155.855469 113.519531 L 155.421875 113.609375 L 154.46875 112.585938 C 153.390625 116.796875 152.328125 120.949219 151.265625 125.097656 L 150.6875 125.015625 L 150.6875 121.347656 L 150.273438 121.273438 L 146.6875 134.195312 L 146.226562 134.105469 L 145.699219 131.371094 L 141.207031 141.496094 L 140.621094 141.304688 L 140.621094 139.054688 C 138.871094 141.636719 137.980469 144.75 134.902344 146.535156 L 134.902344 143.65625 L 129.308594 152.34375 C 129.191406 151.296875 129.128906 150.746094 129.0625 150.144531 L 125.5 154.542969 L 124.421875 152.59375 L 121.617188 157.230469 L 120.242188 155.496094 L 118.445312 157.667969 L 117.25 155.238281 L 114.972656 159.863281 C 114.332031 158.78125 113.765625 157.8125 112.980469 156.488281 L 109.925781 163.207031 L 108.765625 161.03125 L 105.644531 163.9375 L 104.710938 162.007812 Z M 126.628906 93.449219 L 126.628906 89.398438 L 129.078125 92.492188 C 129.460938 91.339844 130.226562 90.15625 130.128906 89.054688 C 129.96875 87.253906 129.328125 85.472656 128.71875 83.742188 C 128.410156 82.867188 128.054688 81.671875 126.574219 82.210938 C 126.503906 82.234375 126.164062 81.765625 126.089844 81.492188 C 125.363281 78.738281 122.988281 77.671875 120.863281 76.34375 C 120.140625 75.894531 119.457031 75.316406 118.671875 75.046875 C 117.164062 74.527344 115.589844 74.183594 114.03125 73.761719 C 113.980469 73.882812 113.878906 74.140625 113.742188 74.492188 C 111.929688 71.777344 109.441406 70.898438 107.921875 72.25 C 106.042969 70.320312 103.695312 70.660156 101.46875 70.835938 L 99.90625 68.648438 L 98.496094 70.761719 L 96.441406 68.902344 C 95.964844 69.332031 95.574219 69.691406 95.152344 70.074219 L 94.078125 68.554688 C 93.742188 69.359375 93.484375 69.964844 93.160156 70.738281 C 92.8125 69.941406 92.5625 69.367188 92.253906 68.652344 C 91.824219 69.269531 91.511719 69.71875 91.1875 70.1875 C 89.90625 69.601562 88.632812 68.898438 87.246094 69.972656 C 86.253906 70.738281 85.214844 71.292969 83.855469 70.945312 C 83.21875 70.78125 82.488281 70.824219 81.832031 70.941406 C 81.027344 71.089844 80.253906 71.414062 79.164062 71.753906 C 78.558594 72.957031 77.582031 73.332031 76.171875 72.582031 L 74.945312 73.929688 L 74.53125 73.234375 C 73.320312 73.6875 72.28125 74.148438 71.199219 74.449219 C 70.742188 74.578125 70.109375 74.183594 69.695312 74.359375 C 68.386719 74.925781 67.117188 75.566406 65.886719 76.285156 C 63.691406 77.542969 61.296875 78.613281 60.453125 81.34375 C 60.355469 81.65625 59.992188 82.175781 59.871094 82.144531 C 58.082031 81.675781 57.945312 83.261719 57.582031 84.167969 C 56.894531 85.859375 56.53125 87.683594 56 89.582031 L 57.097656 89.402344 C 56.910156 89.988281 56.746094 90.492188 56.574219 91.027344 L 57.46875 90.832031 C 57.265625 91.492188 57.082031 92.085938 56.898438 92.683594 L 57.167969 92.824219 L 59.851562 89.441406 L 59.851562 93.402344 L 62.761719 90.84375 L 62.761719 93.84375 C 63.484375 94.085938 64.402344 94.664062 64.6875 94.4375 C 65.933594 93.460938 66.785156 94.53125 67.785156 94.78125 C 67.988281 94.832031 68.246094 95.066406 68.355469 95 C 70.992188 93.503906 74.050781 93.800781 76.832031 92.988281 C 79.246094 92.28125 81.554688 91.210938 85.050781 89.863281 C 86.441406 89.488281 89.089844 88.769531 92.003906 87.976562 C 92.460938 86.941406 94.589844 86.757812 95.894531 87.953125 C 96.382812 88.402344 97.125 88.664062 97.796875 88.824219 C 98.816406 89.066406 99.90625 89.039062 100.90625 89.332031 C 101.808594 89.59375 102.636719 90.125 103.488281 90.550781 C 104.226562 90.917969 104.941406 91.332031 105.695312 91.660156 C 106.296875 91.90625 106.914062 92.109375 107.546875 92.265625 C 109.75 92.84375 111.957031 93.410156 114.164062 93.96875 C 115.445312 94.296875 116.734375 94.609375 118.019531 94.925781 C 118.183594 94.964844 118.351562 95 118.535156 95.042969 C 118.660156 94.667969 118.765625 94.335938 118.875 94.007812 L 120.054688 94.867188 L 120.257812 94.128906 L 123.921875 94.128906 L 123.921875 90.949219 Z M 126.628906 93.449219 " fill-opacity="1" fill-rule="nonzero"/></g></svg>