<svg xmlns="http://www.w3.org/2000/svg" xmlns:xlink="http://www.w3.org/1999/xlink" width="250" zoomAndPan="magnify" viewBox="0 0 187.5 187.499992" height="250" preserveAspectRatio="xMidYMid meet" version="1.0"><defs><clipPath id="80076720ea"><path d="M 78 29 L 112 29 L 112 164 L 78 164 Z M 78 29 " clip-rule="nonzero"/></clipPath><clipPath id="e3a6e0aaad"><path d="M 17.875 90.058594 L 96.042969 17.046875 L 169.058594 95.214844 L 90.890625 168.230469 Z M 17.875 90.058594 " clip-rule="nonzero"/></clipPath><clipPath id="e89e3b9315"><path d="M 17.875 90.058594 L 96.042969 17.046875 L 169.058594 95.214844 L 90.890625 168.230469 Z M 17.875 90.058594 " clip-rule="nonzero"/></clipPath><clipPath id="0f8c0bf683"><path d="M 17.875 90.058594 L 96.042969 17.046875 L 169.058594 95.214844 L 90.890625 168.230469 Z M 17.875 90.058594 " clip-rule="nonzero"/></clipPath><clipPath id="26a3e1f59a"><path d="M 84 44 L 105 44 L 105 115 L 84 115 Z M 84 44 " clip-rule="nonzero"/></clipPath><clipPath id="069bbbc16e"><path d="M 17.875 90.058594 L 96.042969 17.046875 L 169.058594 95.214844 L 90.890625 168.230469 Z M 17.875 90.058594 " clip-rule="nonzero"/></clipPath><clipPath id="680a230e61"><path d="M 17.875 90.058594 L 96.042969 17.046875 L 169.058594 95.214844 L 90.890625 168.230469 Z M 17.875 90.058594 " clip-rule="nonzero"/></clipPath><clipPath id="f2769994d6"><path d="M 17.875 90.058594 L 96.042969 17.046875 L 169.058594 95.214844 L 90.890625 168.230469 Z M 17.875 90.058594 " clip-rule="nonzero"/></clipPath></defs><path fill="#ffffff" d="M 0 0 L 187 0 L 187 187 L 0 187 Z M 0 0 " fill-opacity="1" fill-rule="nonzero"/><path fill="#ffffff" d="M 0 0 L 187 0 L 187 187 L 0 187 Z M 0 0 " fill-opacity="1" fill-rule="nonzero"/><g clip-path="url(#80076720ea)"><g clip-path="url(#e3a6e0aaad)"><g clip-path="url(#e89e3b9315)"><g clip-path="url(#0f8c0bf683)"><path fill="#000000" d="M 109.871094 40.996094 L 108.027344 40.933594 L 108.394531 30.167969 L 107.5 30.152344 L 107.132812 40.890625 L 105.289062 40.824219 L 105.652344 30.089844 L 104.761719 30.042969 L 104.394531 40.8125 L 102.546875 40.75 L 102.914062 29.980469 L 102.023438 29.964844 L 101.65625 40.703125 L 99.808594 40.640625 L 100.175781 29.902344 L 99.285156 29.855469 L 98.917969 40.625 L 97.070312 40.5625 L 97.453125 29.808594 L 96.542969 29.777344 L 96.179688 40.515625 L 94.332031 40.453125 L 94.699219 29.714844 L 93.804688 29.671875 L 93.457031 40.421875 L 93.4375 40.4375 L 91.609375 40.359375 L 91.976562 29.625 L 91.066406 29.59375 L 90.699219 40.328125 L 88.871094 40.28125 L 88.855469 40.265625 L 89.21875 29.527344 L 88.34375 29.5 L 87.976562 40.234375 L 87.960938 40.25 L 86.132812 40.171875 L 86.496094 29.4375 L 85.589844 29.40625 L 85.222656 40.140625 L 83.40625 40.078125 L 83.757812 29.328125 L 82.867188 29.3125 L 82.5 40.046875 L 80.621094 39.984375 L 80.6875 38.042969 L 79.011719 38.003906 C 77.425781 46.847656 79.683594 53.316406 79.683594 53.316406 C 79.667969 53.628906 78.699219 73.847656 78.757812 72.574219 C 77.570312 90.835938 81.902344 154.972656 81.902344 154.972656 C 82.628906 158.476562 84.417969 161.234375 87.539062 162.921875 L 94.597656 163.179688 C 97.84375 161.691406 99.90625 158.675781 100.746094 155.617188 C 100.746094 155.617188 109.46875 91.921875 109.511719 73.609375 C 109.519531 73.296875 109.929688 53.089844 109.902344 54.363281 C 109.902344 54.363281 112.640625 48.050781 111.613281 39.097656 L 109.9375 39.058594 Z M 109.894531 45.402344 L 107.671875 45.292969 L 106.609375 45.257812 C 107.277344 72.574219 103.101562 95.230469 100.191406 107.527344 C 97.207031 120.164062 87.863281 119.859375 85.746094 107.015625 C 83.695312 94.570312 81.0625 71.699219 83.617188 44.488281 L 82.554688 44.453125 L 80.34375 44.425781 L 80.5 42.160156 L 109.890625 43.160156 Z M 109.894531 45.402344 " fill-opacity="1" fill-rule="nonzero"/></g></g></g></g><g clip-path="url(#26a3e1f59a)"><g clip-path="url(#069bbbc16e)"><g clip-path="url(#680a230e61)"><g clip-path="url(#f2769994d6)"><path fill="#000000" d="M 87.9375 106.667969 C 88.753906 111.664062 90.632812 114 92.121094 114.488281 C 94.996094 115.523438 97.292969 110.183594 98.046875 107.015625 C 105.808594 74.167969 104.382812 45.324219 104.394531 44.996094 L 85.847656 44.378906 C 85.738281 47.460938 82.484375 74.023438 87.9375 106.667969 Z M 98.472656 91.539062 C 98.429688 92.816406 97.359375 93.8125 96.082031 93.769531 L 90.785156 93.589844 C 89.511719 93.546875 88.511719 92.476562 88.554688 91.199219 L 88.816406 83.558594 L 98.730469 83.898438 Z M 99.003906 75.726562 L 98.816406 81.6875 L 88.894531 81.351562 L 89.097656 75.402344 C 89.140625 74.121094 90.210938 73.121094 91.492188 73.164062 L 96.78125 73.347656 C 98.066406 73.390625 99.0625 74.457031 99.003906 75.726562 Z M 99.003906 75.726562 " fill-opacity="1" fill-rule="nonzero"/></g></g></g></g></svg>