<svg xmlns="http://www.w3.org/2000/svg" xmlns:xlink="http://www.w3.org/1999/xlink" width="250" zoomAndPan="magnify" viewBox="0 0 187.5 187.499992" height="250" preserveAspectRatio="xMidYMid meet" version="1.0"><defs><clipPath id="bdce477859"><path d="M 72.648438 18.699219 L 114.539062 18.699219 L 114.539062 168.300781 L 72.648438 168.300781 Z M 72.648438 18.699219 " clip-rule="nonzero"/></clipPath></defs><path fill="#ffffff" d="M 0 0 L 187 0 L 187 187 L 0 187 Z M 0 0 " fill-opacity="1" fill-rule="nonzero"/><path fill="#ffffff" d="M 0 0 L 187 0 L 187 187 L 0 187 Z M 0 0 " fill-opacity="1" fill-rule="nonzero"/><g clip-path="url(#bdce477859)"><path fill="#000000" d="M 88.683594 91.820312 L 113.871094 92.492188 C 114.710938 92.847656 114.597656 95.023438 113.761719 95.300781 L 88.683594 95.84375 C 88.675781 97.160156 88.300781 99.519531 90.078125 99.859375 C 92.222656 100.265625 96.46875 99.792969 98.917969 99.855469 C 99.515625 99.867188 100.070312 100.113281 100.664062 100.125 C 105.050781 100.230469 109.429688 99.953125 113.800781 100.367188 C 115.296875 100.636719 114.058594 104 112.730469 104.074219 L 93.167969 105.710938 C 88.261719 107.136719 89.507812 117.003906 89.984375 120.8125 C 91.476562 132.785156 97.472656 147.121094 96.226562 159.015625 C 95.246094 168.382812 81.636719 171.230469 75.683594 164.449219 C 72.050781 160.316406 73.082031 155.011719 73.042969 149.988281 C 72.75 112.296875 73.09375 74.332031 72.773438 36.671875 C 72.726562 31.40625 71.554688 21.90625 77.503906 19.5 C 80.621094 18.242188 88.242188 19.082031 91.828125 19.207031 C 96.949219 19.382812 102.125 19.5 107.238281 19.953125 C 108.851562 20.09375 112.128906 20.21875 113.300781 21.203125 C 114.113281 21.886719 115.152344 24.257812 113.75 24.671875 C 112.398438 25.074219 108 24.664062 106.21875 24.714844 C 105.621094 24.730469 105.070312 24.972656 104.472656 24.984375 C 100.351562 25.074219 94.121094 24.402344 90.34375 24.988281 C 88.316406 25.304688 88.667969 27.445312 88.683594 28.996094 C 91.5 29.054688 94.335938 28.921875 97.152344 28.984375 C 101.476562 29.085938 105.9375 29.230469 110.257812 29.507812 C 111.1875 29.570312 113.695312 29.203125 114.207031 29.851562 C 114.707031 30.488281 114.535156 32.355469 113.550781 32.515625 L 88.683594 33.015625 L 88.683594 36.660156 C 88.90625 37.019531 89.1875 37.007812 89.554688 37.050781 C 93.84375 37.550781 100.347656 37.179688 104.957031 37.300781 C 107.300781 37.359375 111.226562 36.914062 113.292969 37.296875 C 115.054688 37.625 114.84375 40.652344 112.796875 40.5625 L 88.683594 40.808594 L 88.683594 44.828125 L 112.796875 45.074219 C 114.820312 45.105469 115.144531 48.09375 113.058594 48.359375 L 88.6875 48.597656 L 88.6875 52.621094 C 93.773438 52.777344 98.882812 52.71875 103.96875 52.859375 C 104.566406 52.878906 105.117188 53.117188 105.714844 53.132812 C 107.921875 53.191406 111.597656 52.765625 113.542969 53.128906 C 114.804688 53.363281 115.003906 55.925781 113.308594 56.148438 C 107.070312 56.960938 99.746094 56.128906 93.34375 56.378906 C 91.863281 56.4375 90.253906 56.863281 88.6875 56.640625 L 88.6875 60.410156 L 113.050781 60.910156 C 114.742188 60.589844 114.816406 63.535156 113.761719 63.886719 C 113.488281 63.976562 111.09375 64.140625 110.519531 64.175781 C 105.332031 64.484375 99.839844 64.003906 94.609375 64.167969 C 92.71875 64.226562 90.660156 64.660156 88.6875 64.429688 L 88.6875 68.070312 L 89.558594 68.460938 L 113.03125 68.714844 C 115.007812 69.019531 115.007812 71.648438 113.03125 71.953125 L 89.558594 72.207031 L 88.6875 72.59375 L 88.6875 76.238281 L 112.800781 76.484375 C 114.890625 76.558594 115.238281 79.527344 113.050781 79.757812 C 110.929688 79.984375 107.722656 79.960938 105.484375 80.019531 C 100.558594 80.144531 94.234375 79.449219 89.558594 79.996094 C 89.191406 80.039062 88.910156 80.027344 88.6875 80.386719 L 88.6875 84.03125 L 113.550781 84.53125 C 114.761719 84.75 114.765625 87.328125 113.550781 87.546875 L 88.6875 88.050781 L 88.6875 91.820312 Z M 88.683594 91.820312 " fill-opacity="1" fill-rule="nonzero"/></g></svg>